<?xml version="1.0" encoding="UTF-8" standalone="no"?>
<!-- Created with Inkscape (http://www.inkscape.org/) -->

<svg
   xmlns:dc="http://purl.org/dc/elements/1.1/"
   xmlns:cc="http://creativecommons.org/ns#"
   xmlns:rdf="http://www.w3.org/1999/02/22-rdf-syntax-ns#"
   xmlns:svg="http://www.w3.org/2000/svg"
   xmlns="http://www.w3.org/2000/svg"
   xmlns:sodipodi="http://sodipodi.sourceforge.net/DTD/sodipodi-0.dtd"
   xmlns:inkscape="http://www.inkscape.org/namespaces/inkscape"
   width="98.160416mm"
   height="81.491669mm"
   viewBox="0 0 98.160416 81.491669"
   version="1.1"
   id="svg853"
   inkscape:version="0.92.4 (f8dce91, 2019-08-02)"
   sodipodi:docname="divinity.svg">
  <defs
     id="defs847" />
  <sodipodi:namedview
     id="base"
     pagecolor="#ffffff"
     bordercolor="#666666"
     borderopacity="1.0"
     inkscape:pageopacity="0.0"
     inkscape:pageshadow="2"
     inkscape:zoom="1.4"
     inkscape:cx="211.42662"
     inkscape:cy="148.43878"
     inkscape:document-units="mm"
     inkscape:current-layer="layer1"
     showgrid="false"
     inkscape:window-width="1366"
     inkscape:window-height="715"
     inkscape:window-x="0"
     inkscape:window-y="0"
     inkscape:window-maximized="1"
     showguides="true"
     inkscape:guide-bbox="true" />
  <metadata
     id="metadata850">
    <rdf:RDF>
      <cc:Work
         rdf:about="">
        <dc:format>image/svg+xml</dc:format>
        <dc:type
           rdf:resource="http://purl.org/dc/dcmitype/StillImage" />
        <dc:title />
      </cc:Work>
    </rdf:RDF>
  </metadata>
  <g
     inkscape:label="Layer 1"
     inkscape:groupmode="layer"
     id="layer1"
     transform="translate(-16.615325,-72.856433)">
    <path
       style="fill:#87deaa;stroke-width:0.13883986"
       d="m 70.600135,75.664728 c -1.498795,-0.01195 -2.701816,0.179715 -4.330483,0.643371 -1.738238,0.494845 -2.822297,1.027978 -4.177522,2.054654 -0.566491,0.429156 -1.101169,0.834265 -1.188558,0.900205 -0.09912,0.0748 -0.678955,-0.140759 -1.541508,-0.573093 -1.234953,-0.618988 -2.150845,-0.969362 -3.249414,-1.157034 -0.366191,-0.06257 -0.752774,-0.1071 -1.178224,-0.137461 -0.567266,-0.0405 -1.203581,-0.05567 -1.953368,-0.05529 -2.602481,0.0013 -3.459311,0.107527 -5.761924,0.713134 -1.087215,0.285949 -1.705822,0.468559 -2.460313,0.765845 -0.452696,0.178374 -0.954365,0.398303 -1.635559,0.7059 -3.20781,1.448578 -6.26079,3.578394 -8.508526,5.935557 -1.033261,1.083561 -2.578409,3.21183 -3.359483,4.627623 -0.414179,0.750747 -0.912373,1.502838 -1.106911,1.671733 -0.540573,0.469315 -1.83556,2.141204 -2.449462,3.091283 -6.9e-5,1.08e-4 6.9e-5,4.1e-4 0,5.18e-4 -0.204468,0.316468 -0.33383,0.552726 -0.33383,0.637686 0,0.03834 0.208777,0.473887 0.545187,1.144116 0.336344,0.670232 0.800203,1.575287 1.310513,2.553851 0.122404,0.234717 0.280591,0.543859 0.416512,0.805117 0.993561,1.910187 2.256624,4.348767 3.020489,5.841507 0.224909,0.43951 0.41457,0.80708 0.58756,1.1374 l 1.068668,2.08204 -1.207677,1.01131 c -0.664187,0.55622 -1.527686,1.29244 -1.918745,1.63607 -0.39106,0.34363 -1.894981,1.62171 -3.342431,2.83962 -3.45245,2.90497 -4.301366,3.75809 -4.510321,4.53409 -0.79947,2.969 2.862514,4.90193 6.179984,3.26234 0.963594,-0.47623 1.119738,-0.62623 3.146063,-3.02566 1.172744,-1.38867 2.597631,-3.06008 3.166213,-3.71398 0.568579,-0.6539 1.05727,-1.21979 1.086239,-1.25729 0.08537,-0.11069 0.572108,0.78698 3.343465,6.165 0.01707,0.0331 0.02902,0.055 0.04599,0.0879 0.0466,0.0914 0.07917,0.15282 0.12609,0.24494 0.439873,0.86355 0.857806,1.64481 0.928627,1.73581 0.07082,0.091 1.083164,2.03963 2.249474,4.33049 1.166307,2.29086 2.182778,4.24335 2.258777,4.33875 0.233804,0.29363 0.551175,0.20043 1.081072,-0.33693 0.0757,-0.0768 0.156075,-0.16228 0.24081,-0.25735 0.09845,-0.11046 0.208106,-0.22198 0.312642,-0.33279 0.09842,-0.10434 0.191459,-0.20812 0.295075,-0.31265 0.213773,-0.21564 0.438203,-0.43177 0.672827,-0.6475 3.28472,-3.02019 8.529359,-5.99782 13.398663,-7.52977 0.236696,-0.0745 0.476114,-0.14762 0.71727,-0.2186 0.71452,-0.2103 1.44613,-0.40502 2.183328,-0.58187 0.966655,-0.2319 1.941814,-0.43194 2.898532,-0.5979 0.01916,-0.003 0.03874,-0.008 0.05788,-0.0108 4.95e-4,-8e-5 0.0011,9e-5 0.0016,0 0.188298,-0.0324 0.371009,-0.0572 0.557588,-0.0868 1.761305,-0.27823 3.443885,-0.43617 4.874122,-0.43253 0.334746,8.4e-4 0.68756,0.0118 1.043863,0.0279 0.861185,0.0429 1.787619,0.12538 2.55385,0.22686 0.551859,0.0763 1.024505,0.16521 1.373559,0.25993 0.03089,0.01 0.07742,0.0193 0.102836,0.0289 0.212194,0.0807 0.351304,0.12441 0.448552,0.13126 l 0.132808,0.0398 0.231511,1.25677 c 0.27628,1.49993 1.05459,3.2141 2.015381,4.43901 1.147007,1.46229 4.351879,3.85919 5.160408,3.85919 0.336176,0 0.905529,-0.99142 0.781864,-1.36167 -0.04318,-0.12929 -0.711105,-0.64105 -1.484147,-1.1374 -2.407539,-1.54582 -3.936842,-3.46053 -4.487581,-5.61774 -0.355862,-1.39391 -0.317386,-1.54365 0.508496,-1.96216 0.52677,-0.26693 1.566546,-0.68867 2.626713,-1.0821 0.0021,-7.9e-4 0.0041,-0.002 0.0062,-0.003 0.262799,-0.0974 0.527146,-0.19301 0.784965,-0.28422 0.002,-7e-4 0.0037,-0.001 0.0057,-0.002 0.05644,-0.02 0.107549,-0.0368 0.163297,-0.0563 0.200681,-0.0702 0.401067,-0.13965 0.588078,-0.20205 0.238068,-0.0794 0.461835,-0.15166 0.664043,-0.21342 9.56e-4,-3e-4 0.0016,-2.3e-4 0.0026,-5.2e-4 0.202803,-0.0619 0.383732,-0.11359 0.534851,-0.15193 0.579634,-0.14707 1.95975,-0.44034 3.066996,-0.65164 0.686042,-0.13094 1.179992,-0.21761 1.67535,-0.2744 0.165175,-0.0189 0.33056,-0.0347 0.503328,-0.0475 0.691076,-0.0514 1.500908,-0.0583 2.88923,-0.0553 2.765682,0.006 3.224872,0.0425 4.859142,0.3824 3.101881,0.64521 4.128111,1.01563 5.829101,2.10375 0.41378,0.26469 0.79604,0.48163 0.84904,0.48163 0.15677,0 1.58327,-0.97819 1.58027,-1.08366 -0.001,-0.0532 -0.36618,-0.72156 -0.81029,-1.48518 -0.44411,-0.76362 -1.07611,-1.85659 -1.40457,-2.42931 -0.32847,-0.57271 -0.9269,-1.60408 -1.32963,-2.29133 -0.40273,-0.68726 -1.47957,-2.52994 -2.39314,-4.09536 -0.91358,-1.56542 -2.394271,-4.0962 -3.290751,-5.62343 -1.6791,-2.86052 -2.527437,-4.31192 -3.851965,-6.594428 -0.885648,-1.526201 -1.440228,-2.467941 -2.535246,-4.304128 -1.070245,-1.794642 -1.923189,-3.258608 -4.086055,-7.011458 -1.012217,-1.756325 -2.131771,-3.649618 -2.487704,-4.206978 -0.160354,-0.2511 -0.281734,-0.440005 -0.397391,-0.594281 -0.05791,-0.07725 -0.114482,-0.145724 -0.173633,-0.208772 -0.05906,-0.06297 -0.120584,-0.120203 -0.189136,-0.175699 -0.274209,-0.221993 -0.657533,-0.411184 -1.414384,-0.781349 -0.52805,-0.258263 -1.045261,-0.500438 -1.553394,-0.727086 -3.556929,-1.586544 -6.673748,-2.412642 -10.025743,-2.676839 -0.592069,-0.04667 -1.124593,-0.07353 -1.624193,-0.07752 z m -0.153476,2.053621 c 0.776652,-0.0093 1.701583,0.03583 2.563667,0.117306 1.380362,0.151844 2.00357,0.275275 3.56619,0.721402 1.36188,0.404461 2.869259,0.932347 4.188375,1.454174 1.413664,0.576882 2.676979,1.167053 3.093351,1.482082 0.05109,0.03866 0.08966,0.07301 0.114205,0.102836 0.142875,0.173598 1.277535,2.095217 4.126363,6.988204 1.310455,2.250757 2.382726,4.078247 3.421496,5.831168 0.362014,0.610893 1.404382,2.391444 2.316655,3.956864 0.912276,1.565418 2.208602,3.783465 2.880444,4.928895 1.529794,2.60816 2.640044,4.51398 3.510895,6.01721 0.45174,0.78491 0.77913,1.36298 0.92915,1.65002 0.11774,0.23157 0.18555,0.38599 0.17053,0.40101 -0.0311,0.0311 -0.34163,-0.16093 -0.68988,-0.42684 -0.63501,-0.48486 -3.234111,-2.15749 -3.352771,-2.15749 -0.0348,0 -0.520837,-0.20967 -1.080037,-0.46613 -2.681266,-1.22968 -5.419631,-1.61569 -8.097697,-1.14153 -0.154435,0.0273 -0.306987,0.0566 -0.45837,0.0884 -0.05926,0.0124 -0.11737,0.0272 -0.176217,0.0403 -0.0937,0.0209 -0.187883,0.0409 -0.280603,0.0636 -0.02584,0.006 -0.05123,0.0137 -0.077,0.0202 -0.125552,0.0315 -0.25064,0.0637 -0.374655,0.0987 -0.0035,9.8e-4 -0.0069,0.002 -0.01034,0.003 -0.139002,0.0393 -0.277535,0.0807 -0.414962,0.12454 -0.09435,0.0301 -0.187893,0.0633 -0.281636,0.0956 -0.0521,0.0179 -0.104632,0.0346 -0.15658,0.0532 -0.06653,0.0239 -0.132652,0.0499 -0.198954,0.0749 -0.07943,0.03 -0.159047,0.0588 -0.238228,0.0904 -0.06056,0.0242 -0.120941,0.0508 -0.181385,0.076 -0.08132,0.0339 -0.162709,0.067 -0.243912,0.10284 -0.110689,0.0487 -0.221181,0.1007 -0.331763,0.15296 -0.02751,0.013 -0.05517,0.0245 -0.08268,0.0377 -0.135755,0.0652 -0.271736,0.13392 -0.407727,0.20464 -0.0053,0.003 -0.01072,0.005 -0.01602,0.008 -0.114745,0.0598 -0.229524,0.12321 -0.344682,0.18707 -0.03134,0.0174 -0.06266,0.0335 -0.09405,0.0512 -0.09926,0.0559 -0.19893,0.11514 -0.29869,0.17415 -0.04552,0.0269 -0.09076,0.0525 -0.136425,0.0801 -0.107953,0.0652 -0.216791,0.13367 -0.325562,0.20257 -0.03587,0.0227 -0.0715,0.0441 -0.107487,0.0672 -0.06809,0.0438 -0.13667,0.0901 -0.205156,0.13539 -0.093,0.0613 -0.18619,0.12247 -0.280086,0.18655 -0.148929,0.10164 -0.299605,0.20852 -0.451135,0.3173 -0.28295,0.20311 -0.569849,0.41589 -0.86403,0.64492 -0.04331,0.0337 -0.07299,0.0619 -0.112655,0.094 l -0.804602,0.63355 -1.772501,-3.02049 c -2.21371,-3.77347 -2.693245,-4.58941 -4.675166,-7.9499 C 72.826128,98.827074 71.154065,95.984603 69.9888,93.999193 68.82353,92.013784 67.169887,89.202382 66.313571,87.751513 64.72047,85.052124 63.015979,82.1424 62.546359,81.320231 l -0.263032,-0.460438 0.486275,-0.411343 c 0.03613,-0.0306 0.07278,-0.05883 0.109037,-0.08888 0.07948,-0.06081 0.158925,-0.120965 0.237712,-0.187068 0.09606,-0.0806 0.197461,-0.156247 0.297656,-0.233061 0.405575,-0.300397 0.820344,-0.56883 1.248503,-0.805119 1.621166,-0.872482 3.601979,-1.356905 5.784144,-1.415934 z m -17.021702,1.60972 c 0.825908,0.01132 1.591694,0.06552 2.143538,0.165365 0.175199,0.0317 0.35292,0.06947 0.531752,0.113688 6.95e-4,1.7e-4 0.0014,3.47e-4 0.0021,5.16e-4 0.535842,0.132609 1.082323,0.319043 1.607137,0.545187 0.08591,0.03702 0.169135,0.07822 0.253733,0.117306 0.09773,0.04554 0.196488,0.08905 0.292489,0.137459 0.513368,0.25889 0.999524,0.557932 1.436603,0.887286 l 1.068668,0.805116 3.254584,5.532996 c 1.789932,3.043092 3.655642,6.220055 4.146515,7.060036 0.490874,0.83998 1.156036,1.964531 1.477947,2.499071 0.321913,0.53453 1.023768,1.721744 1.559594,2.638081 0.535821,0.916334 2.003322,3.415534 3.260784,5.553664 3.035923,5.16215 3.303673,5.62546 3.303673,5.71077 0,0.0367 -0.214639,-0.11859 -0.478523,-0.339 -0.114506,-0.0974 -0.233953,-0.19351 -0.358635,-0.28836 -1.181518,-0.92537 -2.692888,-1.64756 -4.344438,-2.10323 -0.434385,-0.12913 -0.878224,-0.24444 -1.33015,-0.33951 -0.582912,-0.12258 -1.71314,-0.21095 -2.695443,-0.21084 -6.447676,7.2e-4 -13.68353,3.61576 -19.189009,9.58649 -0.456237,0.49479 -1.081847,1.20245 -1.390097,1.57252 -0.338093,0.40589 -0.501486,0.56033 -0.614431,0.54828 -0.01291,-0.001 -0.02439,-0.008 -0.03617,-0.0134 -0.0064,-0.003 -0.01291,-0.005 -0.01912,-0.009 -0.0156,-0.0107 -0.03079,-0.0245 -0.04547,-0.0424 -0.01449,-0.0177 -0.06123,-0.099 -0.111623,-0.18706 -0.01653,-0.0285 -0.03212,-0.0551 -0.05426,-0.0946 -0.0646,-0.11561 -0.148129,-0.26789 -0.246012,-0.44907 -0.03067,-0.0569 -0.06698,-0.12497 -0.100769,-0.1881 -0.110241,-0.2052 -0.280982,-0.53036 -0.42168,-0.79581 -0.412623,-0.78248 -0.903861,-1.72252 -1.452626,-2.78743 -1.220919,-2.36928 -1.961668,-3.81211 -2.440678,-4.71134 l -0.757576,-1.4764 0.524516,-0.58084 c 0.288342,-0.31934 0.671226,-0.79933 0.851111,-1.0666 0.179885,-0.26726 0.676609,-0.8606 1.10381,-1.31879 0.427194,-0.45816 0.869212,-0.97088 0.982369,-1.13946 l 0.205671,-0.30644 1.527556,0.75758 c 1.947008,0.9662 2.786803,1.18309 4.928381,1.27279 3.614827,0.15138 6.413431,-0.92897 8.75502,-3.38016 2.132967,-2.23281 3.055366,-4.81167 2.863908,-8.007781 -0.0983,-1.640988 -0.444831,-2.961987 -1.135849,-4.329967 -2.697935,-5.341041 -9.108715,-7.981167 -14.784625,-6.088518 -3.289938,1.09705 -6.079339,4.045977 -6.960298,7.358208 -0.217483,0.817711 -0.290423,1.507202 -0.290423,2.756422 0,2.500989 0.514358,4.182993 1.964738,6.426996 0.309824,0.47936 0.563274,0.89906 0.563274,0.93276 0,0.0336 -0.202959,0.16404 -0.451136,0.28991 -0.248176,0.12587 -0.897837,0.65874 -1.443323,1.1839 -0.545484,0.52516 -1.088742,0.95498 -1.207162,0.95498 -0.222247,0 -0.493715,-0.49327 -4.066934,-7.412464 -1.420915,-2.785083 -2.686314,-5.318347 -2.688725,-5.431194 3.07e-4,-0.04377 0.0069,-0.0944 0.01964,-0.150895 5.24e-4,-0.0023 4.9e-4,-0.0038 0.001,-0.0062 0.06289,-0.271719 0.272857,-0.69003 0.563274,-1.173054 0.03443,-0.05727 0.05918,-0.106637 0.09612,-0.16588 0.13879,-0.222335 0.2949,-0.458632 0.464056,-0.701768 6.06e-4,-8.7e-4 0.0015,-0.0017 0.0021,-0.0026 0.339338,-0.487566 0.731189,-1.005412 1.145151,-1.508437 6.19e-4,-7.54e-4 0.0014,-0.0013 0.0021,-0.0021 0.206928,-0.251388 0.419317,-0.498681 0.633037,-0.736904 4.18e-4,-4.68e-4 6.13e-4,-0.0011 0.001,-0.0016 0.214132,-0.238643 0.429842,-0.4681 0.642855,-0.68213 0.650452,-0.65355 1.335863,-1.267981 2.053622,-1.84123 0.239286,-0.19101 0.482218,-0.377563 0.728635,-0.559559 2.956999,-2.183934 6.420739,-3.708239 10.238134,-4.492231 0.995172,-0.204383 2.538492,-0.304125 3.915005,-0.285255 z m -2.041218,6.335014 c 1.791213,0.0182 3.74754,0.548293 5.315437,1.471229 1.187924,0.699259 3.022187,2.506001 3.685048,3.629752 0.60679,1.02869 1.093724,2.45573 1.291394,3.784783 0.415385,2.792828 -0.782212,5.988223 -2.965712,7.914243 -0.970637,0.85617 -2.952358,1.81642 -4.299995,2.08359 -3.505218,0.69492 -6.977803,-0.38734 -9.550839,-2.97656 -1.814946,-1.826354 -2.746473,-3.899608 -2.879926,-6.408908 -0.138359,-2.601561 0.722471,-4.893694 2.511991,-6.689514 1.627267,-1.632992 3.248036,-2.413388 5.685957,-2.737818 0.388998,-0.05177 0.793287,-0.075 1.206645,-0.0708 z m -1.501717,3.823539 c -0.509505,0 -0.99777,0.362804 -0.991671,0.736906 0.0027,0.167484 0.277982,0.92332 0.611849,1.680001 0.333867,0.756682 0.580845,1.444064 0.548804,1.527556 -0.03204,0.08349 -0.342752,0.331968 -0.690399,0.551903 -0.910661,0.57613 -2.141471,1.738193 -2.141471,2.022099 0,0.450953 0.303771,1.117761 0.509013,1.117761 0.112075,0 0.7239,-0.307374 1.360125,-0.683162 0.636228,-0.37579 1.346288,-0.78106 1.577682,-0.900721 l 0.420645,-0.217556 1.125514,2.146123 c 1.086985,2.073431 2.246405,4.121138 2.536795,4.479828 0.222245,0.27452 0.751311,0.2033 1.171504,-0.15813 l 0.385506,-0.33228 -0.680577,-1.577165 c -0.374581,-0.867378 -1.07604,-2.372489 -1.558563,-3.345015 -0.482523,-0.972524 -0.877464,-1.889443 -0.877464,-2.037602 0,-0.21413 0.305628,-0.387299 1.490348,-0.844909 0.819719,-0.316622 1.56569,-0.638255 1.657781,-0.714685 0.20166,-0.167365 0.102571,-0.495014 -0.277503,-0.917257 -0.359463,-0.399341 -0.960972,-0.404951 -2.324407,-0.02274 -1.883952,0.528129 -1.641848,0.624382 -2.614827,-1.040247 -0.759658,-1.299667 -0.903443,-1.470712 -1.238684,-1.470712 z"
       id="path1460"
       inkscape:connector-curvature="0" />
    <path
       style="fill:#ff7f2a;fill-opacity:1;stroke-width:0.13883986"
       d="m 70.720593,76.464676 c -2.597521,-8.81e-4 -3.044502,0.03362 -4.095875,0.315227 -1.604589,0.429766 -3.74415,1.509461 -4.977989,2.511991 l -1.021128,0.829924 -1.131197,-0.609266 c -2.294011,-1.236239 -4.515614,-1.694079 -7.524088,-1.550293 -2.233867,0.10678 -3.632706,0.36169 -5.962944,1.086239 -6.285188,1.954281 -11.807534,6.285048 -14.600142,11.449947 -0.383286,0.708883 -1.058291,1.653597 -1.618506,2.264978 -1.117621,1.219711 -2.177645,2.735413 -2.177645,3.114022 0,1.93e-4 5.12e-4,0.0014 5.17e-4,0.0016 l -0.170015,0.247013 0.649056,1.272791 c 0.356854,0.700013 0.953067,1.835063 1.324984,2.522327 0.371916,0.687264 0.680012,1.338424 0.684712,1.446944 0.0047,0.10852 0.09532,0.29597 0.201538,0.41651 0.10621,0.12057 0.453932,0.75032 0.772563,1.39939 0.318632,0.64908 0.669603,1.33615 0.779797,1.52704 0.110197,0.19091 0.614315,1.14359 1.120346,2.11719 0.563761,1.0847 0.906825,1.63157 1.115695,1.7508 0.121242,0.21309 0.21868,0.37807 0.250113,0.41134 0.142422,0.15073 0.333269,0.0527 1.060916,-0.5457 1.533003,-1.26063 3.523371,-3.08392 3.569292,-3.26957 0.04288,-0.17333 -1.16999,-2.58372 -4.872572,-9.684682 l -1.804023,-3.45922 0.419612,-0.84491 c 0.654288,-1.317739 2.01254,-3.122729 3.408577,-4.529439 4.171569,-4.203449 10.046851,-6.915306 15.7856,-7.286894 1.468096,-0.09506 2.878058,0.03146 4.173905,0.360185 0.0027,6.96e-4 0.0055,0.0014 0.0083,0.0021 0.09631,0.02818 0.177242,0.04684 0.270785,0.07235 0.578348,0.161965 1.13211,0.365165 1.656231,0.608749 0.172958,0.10396 0.355097,0.216487 0.544669,0.341064 l 1.15135,0.757577 0.07441,-0.03721 0.599448,0.457853 0.723987,-0.442867 c 0.398169,-0.24371 1.130411,-0.771213 1.626772,-1.172022 1.9162,-1.547381 4.251465,-2.371438 7.080705,-2.498039 2.141588,-0.09582 3.774456,0.09383 6.316927,0.732772 1.024081,0.257363 2.297973,0.680045 3.526401,1.1436 0.0364,0.01421 0.06901,0.02557 0.105937,0.03979 0.534834,0.203317 1.045882,0.411821 1.535305,0.619601 0.3926,0.184605 0.822254,0.401805 1.191141,0.606165 1.343017,0.744006 1.49546,0.909182 2.525946,2.744535 0.229089,0.408014 0.721852,1.255318 1.095023,1.883089 1.494435,2.514021 2.028817,3.439665 2.028817,3.513997 0,0.04284 0.291766,0.526451 0.648023,1.074353 0.356256,0.547907 0.844544,1.371173 1.085204,1.829346 0.412231,0.784778 0.793679,1.443978 1.828829,3.160531 1.048581,1.738809 2.351688,3.976803 2.710429,4.654496 0.213791,0.40387 0.625432,1.09094 0.914672,1.52704 0.28924,0.43611 0.615905,0.98065 0.726054,1.20974 0.110151,0.22908 0.385067,0.69327 0.610817,1.03198 0.225765,0.33872 0.591025,0.98903 0.811835,1.44487 0.22081,0.45584 0.55374,1.02822 0.73949,1.27176 0.18576,0.24354 0.33745,0.48772 0.33745,0.54312 0,0.0554 0.18743,0.37346 0.41651,0.70642 0.22909,0.33296 0.41651,0.67194 0.41651,0.75344 0,0.0815 0.21184,0.44532 0.47026,0.80822 0.258431,0.3629 0.672791,1.06583 0.920871,1.56218 0.24808,0.49635 0.63012,1.16338 0.84905,1.48259 0.0845,0.12325 0.15016,0.22811 0.20619,0.32453 -0.15064,0.0584 -0.60523,-0.18591 -1.233,-0.67386 -4.662937,-3.62439 -9.111731,-4.85905 -13.568687,-3.76515 -1.581772,0.38824 -3.954402,1.57727 -5.483903,2.74764 -0.892492,0.68292 -1.219504,0.9315 -1.230415,1.4211 l -0.07338,0.0605 0.280087,1.04128 c 0.229315,0.85252 0.263436,1.29602 0.206706,2.68925 -0.03174,0.7054 -0.08765,1.62899 -0.173633,2.96829 -0.01623,0.1826 -0.02479,0.34493 -0.02997,0.49299 -0.05935,1.09288 0.03549,1.04861 0.849043,0.63356 1.61888,-0.8259 4.94243,-1.91468 7.169589,-2.3487 4.610224,-0.89843 7.995774,-0.90247 12.231293,-0.015 0.49544,0.10383 1.00102,0.23512 1.49552,0.38344 1.2634,0.47417 2.73881,1.11899 3.09438,1.38132 0.23474,0.17321 0.38135,0.24626 0.51573,0.24288 0.01,0.008 0.0215,0.016 0.031,0.0238 0.11455,0.0936 0.27893,0.20946 0.36483,0.25786 0.16812,0.0947 1.30122,-0.65946 1.30122,-0.8661 0,-0.11028 -0.68234,-1.29696 -3.40135,-5.91333 -1.07407,-1.82358 -3.63026,-6.19662 -6.492111,-11.10681 -2.307554,-3.959185 -3.811292,-6.526333 -6.181014,-10.551812 -1.39092,-2.362769 -2.215756,-3.774491 -4.137213,-7.081222 -0.976183,-1.679969 -1.903812,-3.257131 -2.06189,-3.505212 -0.323681,-0.50791 -1.523619,-1.182819 -3.82819,-2.15284 -1.88717,-0.794359 -2.000388,-0.835257 -3.887618,-1.406116 -2.872,-0.868731 -3.649811,-0.979819 -6.872449,-0.980819 z m -2.499072,32.075044 c -2.056553,0.008 -2.708211,0.0614 -3.679362,0.30282 -4.143483,1.03019 -7.596195,2.71519 -11.107332,5.42138 -1.393677,1.07418 -4.145031,3.73529 -5.232239,5.06016 -0.430654,0.52478 -0.879173,0.93689 -1.019061,0.93689 -0.268195,0 -0.63124,-0.65595 -4.016809,-7.25434 -1.008893,-1.96632 -1.88714,-3.57498 -1.951302,-3.57498 -0.105992,0 -3.821245,4.27458 -4.074686,4.68809 -0.02318,0.0378 0.04185,0.22977 0.144176,0.48473 -0.0711,0.24581 0.0047,0.44856 0.1695,0.77153 0.15993,0.31349 0.290423,0.62991 0.290423,0.70331 0,0.0734 0.299061,0.65384 0.664556,1.28984 0.365496,0.63602 0.839867,1.53138 1.054201,1.98955 0.214334,0.45817 0.595223,1.17681 0.84646,1.5968 0.251238,0.41999 0.49702,0.89612 0.546219,1.05833 0.0492,0.16221 0.462735,0.96487 0.918808,1.78336 0.456076,0.81849 0.829406,1.55069 0.829406,1.62729 0,0.0766 0.12347,0.31255 0.274402,0.52451 0.150928,0.21196 0.629245,1.12357 1.062984,2.02572 0.433745,0.90215 0.975519,1.94073 1.204061,2.30839 0.228539,0.36764 0.44849,0.66869 0.48886,0.66869 0.0039,0 0.03103,-0.0227 0.04341,-0.031 0.171067,0.26565 0.317,0.44752 0.379304,0.44752 0.108122,0 0.902621,-0.68414 1.765785,-1.52032 2.476653,-2.39924 4.776623,-3.9727 8.388635,-5.73918 5.42336,-2.65234 11.462393,-4.12875 16.859954,-4.12275 1.24129,0.001 2.599766,0.0893 3.341396,0.21652 0.687261,0.11786 1.478312,0.24928 1.758032,0.29198 l 0.508497,0.0775 0.07183,-0.74569 c 0.411958,-4.27651 0.362259,-5.9668 -0.202571,-6.88072 -0.579289,-0.93732 -3.030712,-2.74257 -4.606954,-3.39255 -2.10816,-0.86935 -2.982161,-1.02378 -5.72058,-1.01338 z"
       id="path836"
       inkscape:connector-curvature="0" />
    <text
       xml:space="preserve"
       style="font-style:normal;font-weight:normal;font-size:14.06425285px;line-height:1.25;font-family:sans-serif;text-align:center;letter-spacing:0px;word-spacing:0px;text-anchor:middle;fill:#ff7f2a;fill-opacity:1;stroke:none;stroke-width:0.41798899;stroke-miterlimit:4;stroke-dasharray:none;stroke-opacity:1;"
       x="65.265259"
       y="146.55606"
       id="text1483"><tspan
         sodipodi:role="line"
         x="65.265259"
         y="146.55606"
         style="font-style:normal;font-variant:normal;font-weight:bold;font-stretch:normal;font-family:Poppins;-inkscape-font-specification:'Poppins Bold';text-align:center;text-anchor:middle;fill:#ff7f2a;fill-opacity:1;stroke:none;stroke-width:0.41798899;stroke-miterlimit:4;stroke-dasharray:none;stroke-opacity:1;"
         id="tspan1485">Divinity</tspan></text>
  </g>
</svg>
