<?xml version="1.0" encoding="UTF-8" standalone="no"?>
<!-- Created with Inkscape (http://www.inkscape.org/) -->

<svg
   xmlns:dc="http://purl.org/dc/elements/1.1/"
   xmlns:cc="http://creativecommons.org/ns#"
   xmlns:rdf="http://www.w3.org/1999/02/22-rdf-syntax-ns#"
   xmlns:svg="http://www.w3.org/2000/svg"
   xmlns="http://www.w3.org/2000/svg"
   xmlns:sodipodi="http://sodipodi.sourceforge.net/DTD/sodipodi-0.dtd"
   xmlns:inkscape="http://www.inkscape.org/namespaces/inkscape"
   width="98.160416mm"
   height="81.491669mm"
   viewBox="0 0 98.160416 81.491669"
   version="1.1"
   id="svg853"
   inkscape:version="0.92.4 (f8dce91, 2019-08-02)"
   sodipodi:docname="theological_studies.svg">
  <defs
     id="defs847" />
  <sodipodi:namedview
     id="base"
     pagecolor="#ffffff"
     bordercolor="#666666"
     borderopacity="1.0"
     inkscape:pageopacity="0.0"
     inkscape:pageshadow="2"
     inkscape:zoom="1.4"
     inkscape:cx="250.13622"
     inkscape:cy="153.66213"
     inkscape:document-units="mm"
     inkscape:current-layer="layer1"
     showgrid="false"
     inkscape:window-width="1366"
     inkscape:window-height="715"
     inkscape:window-x="0"
     inkscape:window-y="0"
     inkscape:window-maximized="1" />
  <metadata
     id="metadata850">
    <rdf:RDF>
      <cc:Work
         rdf:about="">
        <dc:format>image/svg+xml</dc:format>
        <dc:type
           rdf:resource="http://purl.org/dc/dcmitype/StillImage" />
        <dc:title></dc:title>
      </cc:Work>
    </rdf:RDF>
  </metadata>
  <g
     inkscape:label="Layer 1"
     inkscape:groupmode="layer"
     id="layer1"
     transform="translate(-16.615325,-72.856433)">
    <path
       inkscape:connector-curvature="0"
       id="path1460"
       d="m 46.12674,130.89791 c -0.076,-0.0954 -1.092445,-2.04789 -2.258753,-4.33875 -1.166309,-2.29086 -2.173315,-4.23337 -2.237785,-4.31669 -0.06447,-0.0833 -0.565028,-1.0205 -1.112343,-2.0826 -2.771356,-5.37802 -3.257967,-6.27525 -3.343331,-6.16456 -0.02897,0.0375 -0.517841,0.60327 -1.086419,1.25717 -0.568583,0.6539 -1.9933,2.3251 -3.166044,3.71377 -2.026323,2.39943 -2.18263,2.54976 -3.146223,3.02599 -3.31747,1.63959 -6.979264,-0.29371 -6.179794,-3.26271 0.208954,-0.776 1.057607,-1.62919 4.510057,-4.53416 1.447453,-1.21791 2.95169,-2.49554 3.342748,-2.83917 0.391059,-0.34363 1.254447,-1.07987 1.918634,-1.63609 l 1.207617,-1.01132 -1.618673,-3.15388 c -0.890268,-1.73464 -2.453732,-4.75517 -3.474355,-6.712287 -1.020624,-1.957127 -1.855684,-3.621147 -1.855684,-3.697827 0,-0.34 2.062638,-3.10376 2.783403,-3.72951 0.194538,-0.1689 0.692578,-0.92133 1.106755,-1.67208 0.781074,-1.41579 2.326104,-3.54417 3.359365,-4.62773 2.247836,-2.35727 5.300836,-4.48697 8.508802,-5.93555 1.816519,-0.82026 2.356226,-1.0142 4.095774,-1.47171 2.302612,-0.60561 3.159372,-0.71162 5.761854,-0.71296 2.999146,-0.002 4.185357,0.24939 6.380826,1.34982 0.862553,0.43233 1.442348,0.64789 1.541471,0.57309 0.08739,-0.0659 0.622371,-0.47103 1.18886,-0.90018 1.355226,-1.02668 2.439138,-1.5598 4.177375,-2.05465 2.171555,-0.6182 3.586284,-0.75268 5.954554,-0.56602 3.830852,0.30194 7.354958,1.33793 11.579359,3.40403 1.513702,0.74032 1.532979,0.75593 2.174394,1.76033 0.355933,0.55736 1.475325,2.45038 2.487542,4.2067 2.162866,3.75285 3.016045,5.21677 4.08629,7.01141 1.095018,1.83619 1.649712,2.77784 2.53536,4.30404 1.324528,2.28251 2.172449,3.734367 3.851553,6.594884 0.896481,1.52723 2.377431,4.05759 3.291011,5.62301 0.91357,1.56542 1.99054,3.40852 2.39327,4.09578 0.40273,0.68725 1.00098,1.71814 1.32945,2.29085 0.32846,0.57272 0.96057,1.66608 1.40468,2.4297 0.44411,0.76362 0.80868,1.43192 0.81016,1.48511 0.003,0.10547 -1.42353,1.08343 -1.5803,1.08343 -0.053,0 -0.43498,-0.21657 -0.84876,-0.48126 -1.70099,-1.08812 -2.72734,-1.45852 -5.82923,-2.10373 -1.634263,-0.33994 -2.093711,-0.37611 -4.859392,-0.38254 -2.776645,-0.006 -3.237592,0.0278 -5.067655,0.37708 -1.107246,0.2113 -2.48742,0.50451 -3.067054,0.65158 -1.217468,0.30891 -4.322631,1.46124 -5.376172,1.99511 -0.825882,0.41851 -0.864801,0.56858 -0.508939,1.96248 0.550739,2.15722 2.080128,4.07165 4.487667,5.61747 0.773042,0.49635 1.440865,1.00824 1.484047,1.13753 0.123665,0.37025 -0.445355,1.36159 -0.781531,1.36159 -0.808529,0 -4.013453,-2.39656 -5.160461,-3.85885 -0.960791,-1.22491 -1.739071,-2.93918 -2.015351,-4.43911 l -0.231462,-1.25664 -0.559035,-0.16851 c -0.980016,-0.29541 -3.280007,-0.5421 -5.096424,-0.54664 -3.147912,-0.008 -7.49649,0.73492 -11.290351,1.92853 -5.564921,1.7508 -11.619979,5.39006 -14.679532,8.82281 -0.677891,0.76057 -1.05462,0.92999 -1.321825,0.59442 z m 3.502252,-13.84275 c 5.50548,-5.97073 12.741374,-9.58557 19.189049,-9.58629 3.264029,-4.3e-4 6.569786,1.10268 8.665829,2.89156 0.297765,0.25412 0.541388,0.42929 0.541388,0.38925 0,-0.0853 -0.268008,-0.54855 -3.303932,-5.7107 -1.257461,-2.13813 -2.724699,-4.63725 -3.260521,-5.553587 -0.535827,-0.916337 -1.237607,-2.103417 -1.55952,-2.637947 -0.32191,-0.53454 -0.986916,-1.65914 -1.477789,-2.49912 -0.490874,-0.83998 -2.356987,-4.01704 -4.146922,-7.06013 l -3.254425,-5.53289 -1.068465,-0.80511 c -1.165545,-0.87827 -2.682242,-1.54091 -4.123977,-1.80177 -1.471586,-0.26627 -4.46608,-0.20689 -6.058356,0.12012 -5.08986,1.04532 -9.550954,3.40706 -13.020536,6.89316 -1.709301,1.71744 -3.570829,4.39446 -3.570829,5.13514 0,0.12126 1.070756,2.29445 2.379455,4.8293 3.942655,7.636604 4.146886,8.010374 4.376824,8.010374 0.118419,0 0.661617,-0.42967 1.207101,-0.95483 0.545485,-0.52516 1.194846,-1.05783 1.443022,-1.18371 0.248176,-0.12587 0.451227,-0.25639 0.451227,-0.29003 0,-0.0337 -0.253493,-0.45338 -0.563317,-0.93274 -1.450381,-2.244004 -1.964475,-3.925894 -1.964475,-6.426884 0,-1.24922 0.07258,-1.93894 0.290062,-2.75665 0.880961,-3.31223 3.670397,-6.26109 6.960334,-7.35814 5.675912,-1.89265 12.086841,0.74739 14.784778,6.08843 0.691016,1.36798 1.03759,2.68918 1.13589,4.33017 0.191456,3.19611 -0.730809,5.774954 -2.863776,8.007764 -2.34159,2.45119 -5.140078,3.53171 -8.754904,3.38032 -2.141578,-0.0897 -2.981805,-0.30668 -4.928814,-1.27288 l -1.52724,-0.75789 -0.205735,0.30651 c -0.113157,0.16858 -0.555264,0.68137 -0.98246,1.13954 -0.4272,0.45818 -0.923902,1.05172 -1.103787,1.31898 -0.179886,0.26727 -0.562983,0.74723 -0.851326,1.06657 l -0.524263,0.58063 1.055611,2.05733 c 2.322735,4.52688 4.383393,8.45403 4.529759,8.63271 0.124357,0.15182 0.264276,0.0571 0.715066,-0.48409 0.308249,-0.37007 0.933737,-1.07768 1.389974,-1.57247 z m 51.266738,-7.38552 c -0.87836,-1.52047 -2.210434,-3.80337 -3.917205,-6.71325 -0.671842,-1.14543 -1.967935,-3.363397 -2.880211,-4.928804 -0.912273,-1.56542 -1.954869,-3.34604 -2.316883,-3.95694 -1.038771,-1.75292 -2.11114,-3.58051 -3.421595,-5.83127 -2.848828,-4.89299 -3.983396,-6.81444 -4.126271,-6.98804 -0.566197,-0.68795 -5.927025,-2.75905 -8.985102,-3.47129 -1.245206,-0.29002 -3.692027,-0.47361 -5.149992,-0.38643 -2.871616,0.17172 -5.06355,1.01209 -7.067917,2.70977 l -0.485939,0.41159 0.263104,0.46062 c 0.469618,0.82217 2.173799,3.7315 3.766902,6.43074 0.856316,1.45087 2.510338,4.26238 3.675607,6.24779 1.165266,1.98541 2.837199,4.82816 3.715405,6.317207 1.981922,3.360487 2.461607,4.176107 4.675317,7.949577 l 1.772134,3.02075 0.853978,-0.67262 c 2.523845,-1.98788 4.603032,-2.99395 7.101763,-3.43636 2.678066,-0.47416 5.416296,-0.0881 8.097562,1.14158 0.5592,0.25646 1.04519,0.4663 1.079976,0.4663 0.118655,0 2.718177,1.67238 3.353187,2.15724 0.34825,0.26591 0.65863,0.45801 0.68974,0.4269 0.0311,-0.0311 -0.28099,-0.64089 -0.69356,-1.35506 z m -46.224425,-5.46759 c 1.347638,-0.26718 3.329324,-1.22743 4.299962,-2.0836 2.1835,-1.92602 3.380861,-5.121584 2.965476,-7.914414 -0.19767,-1.32905 -0.684557,-2.75604 -1.291347,-3.78473 -0.66286,-1.12375 -2.497268,-2.93064 -3.68519,-3.6299 -1.929721,-1.13592 -4.447493,-1.67654 -6.522146,-1.40046 -2.437922,0.32443 -4.058641,1.10482 -5.685909,2.73781 -1.789518,1.79582 -2.650328,4.08833 -2.511971,6.68989 0.133453,2.5093 1.065088,4.582417 2.880034,6.408774 2.573036,2.58922 6.045873,3.67154 9.551091,2.97663 z m 0.338877,-2.59935 c -0.29039,-0.35869 -1.45002,-2.406317 -2.537006,-4.479754 l -1.125315,-2.14655 -0.420722,0.21756 c -0.231394,0.11966 -0.941262,0.52502 -1.57749,0.90081 -0.636224,0.37579 -1.248468,0.68326 -1.360543,0.68326 -0.205242,0 -0.508615,-0.66655 -0.508615,-1.11751 0,-0.2839 1.230718,-1.4462 2.141381,-2.02233 0.347645,-0.21993 0.658291,-0.46819 0.690331,-0.55168 0.03204,-0.0835 -0.214912,-0.77091 -0.548779,-1.52759 -0.333866,-0.75668 -0.609237,-1.51282 -0.611941,-1.6803 -0.0061,-0.37411 0.482058,-0.73678 0.991563,-0.73678 0.33524,0 0.479248,0.17093 1.238905,1.4706 0.972979,1.66463 0.730671,1.56824 2.614624,1.04011 1.363436,-0.38221 1.965314,-0.37623 2.324777,0.0231 0.380075,0.42224 0.479134,0.74962 0.277473,0.91698 -0.09209,0.0764 -0.838109,0.39802 -1.657828,0.71464 -1.184719,0.45761 -1.490391,0.63092 -1.490391,0.84505 0,0.14816 0.39479,1.06508 0.877313,2.03761 0.482522,0.97252 1.18379,2.47789 1.558371,3.345267 l 0.681062,1.577037 -0.385978,0.33201 c -0.420194,0.36143 -0.948948,0.43297 -1.171192,0.15845 z"
       style="fill:#f9dd5d;stroke-width:0.13883986" />
    <path
       inkscape:connector-curvature="0"
       id="path1458"
       d="m 45.997635,131.11828 c -0.076,-0.0954 -1.092445,-2.04789 -2.258753,-4.33875 -1.166309,-2.29086 -2.17851,-4.23963 -2.249328,-4.3306 -0.07082,-0.091 -0.488658,-0.87195 -0.92853,-1.7355 -1.560201,-3.06297 -2.957857,-5.74116 -3.218686,-6.16764 l -0.264419,-0.43236 0.354698,-0.53952 c 0.623331,-0.94813 -1.182086,1.01175 -4.084408,4.43385 -1.477962,1.74265 -2.940757,3.35213 -3.250655,3.57662 -0.648216,0.46956 -2.113852,0.96053 -2.867369,0.96053 -0.738558,0 -1.947265,-0.38546 -2.486803,-0.79306 -0.699529,-0.52847 -0.993653,-1.10667 -0.994251,-1.95455 -7.87e-4,-1.19181 0.284029,-1.55701 3.074772,-3.94179 1.401249,-1.19742 3.760841,-3.2133 5.243546,-4.47975 1.482701,-1.26645 2.788751,-2.44224 2.902329,-2.61287 0.143446,-0.21548 0.149093,-0.25722 0.0185,-0.13667 -0.439267,0.40548 -0.624032,0.16037 -2.198653,-2.91674 -0.86913,-1.69845 -2.415458,-4.68937 -3.436286,-6.646497 -1.020825,-1.957127 -1.85605,-3.621147 -1.85605,-3.697822 0,-0.340007 2.062638,-3.103762 2.783403,-3.729517 0.194538,-0.168893 0.692578,-0.921327 1.106755,-1.672075 0.781074,-1.415794 2.326104,-3.544168 3.359365,-4.62773 2.247836,-2.357266 5.300836,-4.486972 8.508802,-5.935552 1.816519,-0.820263 2.356226,-1.014194 4.095774,-1.471711 2.302612,-0.605608 3.159372,-0.711622 5.761854,-0.712959 2.999146,-0.0015 4.185357,0.249394 6.380826,1.349817 0.862553,0.432334 1.442348,0.647892 1.541471,0.573091 0.08739,-0.06594 0.622371,-0.471025 1.18886,-0.90018 1.355226,-1.026676 2.439138,-1.559799 4.177375,-2.054645 2.171555,-0.618206 3.586284,-0.752686 5.954554,-0.566023 3.830852,0.30194 7.354958,1.337934 11.579359,3.404027 1.513702,0.740327 1.532979,0.755932 2.174394,1.760333 0.355933,0.557362 1.475325,2.450378 2.487542,4.206702 2.162866,3.752851 3.016045,5.21677 4.08629,7.011412 1.095018,1.836188 1.649712,2.777833 2.53536,4.304036 1.324528,2.282507 2.172449,3.734373 3.851553,6.594893 0.896479,1.52723 2.377424,4.05759 3.291004,5.62301 0.91357,1.56542 1.99054,3.40852 2.39327,4.09578 0.40273,0.68725 1.00098,1.71814 1.32945,2.29085 0.32846,0.57272 0.96057,1.66608 1.40468,2.4297 0.44411,0.76362 0.80868,1.43192 0.81016,1.48511 0.003,0.10547 -1.42353,1.08343 -1.5803,1.08343 -0.053,0 -0.43498,-0.21657 -0.84876,-0.48126 -1.70099,-1.08812 -2.72734,-1.45852 -5.82922,-2.10373 -1.634266,-0.33994 -2.093714,-0.37611 -4.859395,-0.38254 -2.776645,-0.006 -3.237592,0.0278 -5.067655,0.37708 -1.107246,0.2113 -2.48742,0.50451 -3.067054,0.65158 -1.208955,0.30675 -4.320183,1.46 -5.359261,1.98654 -0.386812,0.19601 -0.742143,0.31754 -0.789623,0.27006 -0.04748,-0.0475 -0.09553,-0.52888 -0.106781,-1.06978 l -0.02047,-0.98345 -0.10427,1.24956 c -0.289229,3.46614 1.526748,6.46556 5.303575,8.75987 0.876238,0.53228 0.983366,0.78559 0.555635,1.31381 l -0.256075,0.31624 -0.869732,-0.52833 c -3.344902,-2.03192 -5.395957,-4.68038 -5.92878,-7.65562 -0.2685,-1.49929 -0.344623,-1.75046 -0.426617,-1.40764 -0.06754,0.2824 -0.159263,0.29547 -0.681083,0.0971 -0.681794,-0.25922 -3.389055,-0.54831 -5.134793,-0.54831 -3.106001,0 -7.477737,0.75249 -11.229758,1.93293 -5.56492,1.7508 -11.619979,5.39006 -14.679532,8.82281 -0.67789,0.76057 -1.05462,0.92999 -1.321824,0.59442 z m 3.502252,-13.84275 c 5.50548,-5.97073 12.741374,-9.58557 19.189049,-9.58629 0.982303,-1.1e-4 2.112683,0.0884 2.695595,0.21098 3.127325,0.65786 5.931193,2.18393 7.074978,3.85074 0.249219,0.36318 0.478937,0.63451 0.510481,0.60297 0.110922,-0.11092 -0.596557,-1.35305 -5.899231,-10.35731 -1.866255,-3.169017 -3.739916,-6.355394 -4.163687,-7.080832 -0.423768,-0.725438 -1.472779,-2.506059 -2.33113,-3.956935 -1.736375,-2.935011 -4.527838,-7.691414 -5.118503,-8.721484 -0.210922,-0.367824 -0.347889,-0.761556 -0.304369,-0.874959 0.04746,-0.123674 0.02031,-0.169837 -0.06786,-0.115351 -0.08084,0.04996 -0.190606,0.208769 -0.243925,0.352906 -0.08677,0.234555 -0.201437,0.183462 -1.092249,-0.486684 -1.090162,-0.820114 -2.646848,-1.490899 -4.048436,-1.744495 -1.471586,-0.266263 -4.46608,-0.206889 -6.058356,0.120123 -5.08986,1.045323 -9.550954,3.407056 -13.020536,6.893157 -1.704114,1.712225 -3.570829,4.394347 -3.570829,5.13061 0,0.19729 4.183932,8.429317 5.90419,11.616694 l 0.723761,1.34102 -0.294208,0.29645 -0.294207,0.29646 0.555359,-0.2284 c 0.305448,-0.12562 1.002402,-0.66014 1.548784,-1.18783 0.546382,-0.52768 1.220738,-1.0544 1.498569,-1.17048 0.277831,-0.11609 0.541187,-0.30499 0.585238,-0.41979 0.0458,-0.11934 -0.158239,-0.5485 -0.476473,-1.0022 -2.638584,-3.761732 -2.81401,-8.62037 -0.438786,-12.152575 2.645058,-3.933467 7.525531,-5.610971 12.41874,-4.268538 1.994945,0.547306 3.784596,1.647268 5.299805,3.257389 2.18853,2.325616 3.147865,4.677319 3.148876,7.719111 7.87e-4,2.395599 -0.538857,4.084556 -1.933915,6.052623 -3.041792,4.29117 -9.347667,5.59627 -14.340254,2.96793 -0.721037,-0.37959 -1.428496,-0.69016 -1.57213,-0.69016 -0.152005,0 -0.31727,0.14759 -0.395416,0.35313 -0.07385,0.19423 -0.556504,0.81371 -1.072574,1.37662 -0.894892,0.97611 -2.080237,2.39856 -2.509692,3.01169 -0.188343,0.2689 -0.182904,0.27662 0.09143,0.12979 0.341333,-0.18267 0.107057,-0.58442 3.509564,6.01836 1.217216,2.36208 2.287098,4.38384 2.377519,4.49278 0.136833,0.16488 0.258361,0.0853 0.72485,-0.47475 0.308249,-0.37007 0.933737,-1.07768 1.389974,-1.57247 z m 29.744022,0.3769 c -0.03322,-0.1727 -0.06164,-0.0641 -0.06319,0.24135 -0.0016,0.30545 0.02562,0.44675 0.06038,0.31401 0.03475,-0.13274 0.03601,-0.38266 0.0028,-0.55536 z m 1.659831,-0.83466 c -0.03853,-0.0954 -0.07003,-0.0174 -0.07003,0.17355 0,0.19091 0.03152,0.269 0.07003,0.17355 0.03853,-0.0954 0.03853,-0.25165 0,-0.3471 z m -1.524347,-0.54668 c -0.04432,-0.11076 -0.07722,-0.0779 -0.08388,0.0839 -0.006,0.14636 0.0268,0.22837 0.07292,0.18223 0.04613,-0.0461 0.05106,-0.16589 0.01094,-0.26611 z m 1.672563,-1.87992 c -0.03007,-0.28806 -0.05515,-0.0864 -0.05577,0.44813 -3.94e-4,0.53454 0.02397,0.77022 0.05465,0.52375 0.03066,-0.24647 0.03117,-0.68382 0.0012,-0.97188 z m -0.145323,-1.3134 c -0.04432,-0.11075 -0.07722,-0.0779 -0.08388,0.0839 -0.006,0.14636 0.0268,0.22836 0.07292,0.18222 0.04614,-0.0461 0.05107,-0.16588 0.01094,-0.26611 z m -42.423285,-0.77229 c 0.172699,-0.22021 0.167787,-0.22512 -0.05242,-0.0524 -0.133634,0.1048 -0.242969,0.21414 -0.242969,0.24297 0,0.11427 0.114014,0.0407 0.295391,-0.19055 z m 42.71809,-1.87106 c 2.514522,-1.95766 4.567316,-2.94387 7.038282,-3.38137 2.678066,-0.47416 5.416296,-0.0881 8.097562,1.14158 0.5592,0.25646 1.04519,0.4663 1.079976,0.4663 0.118655,0 2.718172,1.67238 3.353182,2.15724 0.34825,0.26591 0.65863,0.45801 0.68974,0.4269 0.0648,-0.0648 -0.6501,-1.31575 -4.61076,-8.06831 -0.671842,-1.14543 -1.967935,-3.363397 -2.880211,-4.928816 -0.912273,-1.565419 -1.954869,-3.34604 -2.316883,-3.956935 -1.038771,-1.75292 -2.11114,-3.580515 -3.421595,-5.831274 -2.848828,-4.892986 -3.983396,-6.814434 -4.126271,-6.988032 -0.392719,-0.477169 -4.34489,-2.15349 -6.694246,-2.839376 -2.285342,-0.667198 -2.691533,-0.753308 -4.442875,-0.941866 -3.916975,-0.421722 -7.418597,0.427731 -9.718788,2.357665 -0.458173,0.38442 -0.961677,0.700533 -1.118893,0.702472 -0.15722,0.0019 -0.407131,0.100689 -0.555359,0.219444 -0.256248,0.205295 -0.253339,0.208044 0.05908,0.05587 0.486915,-0.237173 -0.538621,-1.862736 7.93073,12.570901 2.240378,3.818096 4.367753,7.441807 4.727504,8.052707 1.372311,2.33034 2.561198,4.33992 3.121276,5.27591 0.319851,0.53454 0.944481,1.59666 1.388064,2.36028 0.44358,0.76362 0.967915,1.63831 1.165187,1.94376 0.352537,0.54585 0.359417,0.54907 0.401744,0.18787 0.02999,-0.25594 0.283026,-0.55431 0.833556,-0.98292 z m -41.885053,0.89918 c 0.172699,-0.22021 0.167787,-0.22512 -0.05242,-0.0524 -0.133634,0.1048 -0.242969,0.21414 -0.242969,0.24297 0,0.11427 0.114011,0.0407 0.295388,-0.19055 z m 0.74591,-0.86775 c 0.138215,-0.15273 0.22006,-0.27768 0.181876,-0.27768 -0.03818,0 -0.182502,0.12495 -0.320717,0.27768 -0.138215,0.15272 -0.220056,0.27768 -0.181877,0.27768 0.03818,0 0.182503,-0.12496 0.320718,-0.27768 z m 0.78133,-0.93717 c 0.172699,-0.22021 0.167787,-0.22512 -0.05242,-0.0524 -0.133633,0.1048 -0.242969,0.21414 -0.242969,0.24297 0,0.11427 0.114015,0.0407 0.295392,-0.19055 z m -5.015945,-1.49253 c 0.179346,-0.1909 0.294845,-0.3471 0.256661,-0.3471 -0.03817,0 -0.216156,0.1562 -0.395502,0.3471 -0.179346,0.19091 -0.294845,0.3471 -0.256665,0.3471 0.03818,0 0.21616,-0.15619 0.395506,-0.3471 z m 1.041297,-0.90246 c 0.138215,-0.15272 0.220061,-0.27768 0.181877,-0.27768 -0.03818,0 -0.182502,0.12496 -0.320717,0.27768 -0.138211,0.15273 -0.220056,0.27768 -0.181877,0.27768 0.03818,0 0.182503,-0.12495 0.320717,-0.27768 z m 1.180139,-1.0413 c 0.259046,-0.26726 0.439754,-0.48594 0.401571,-0.48594 -0.03818,0 -0.281366,0.21868 -0.540412,0.48594 -0.259042,0.26727 -0.43975,0.48594 -0.401571,0.48594 0.03818,0 0.281369,-0.21867 0.540412,-0.48594 z m 16.968952,-1.44786 c 3.417556,-0.87406 6.074445,-3.47082 6.915392,-6.758885 1.142565,-4.467397 -1.215358,-9.305826 -5.604037,-11.499405 -1.809809,-0.90459 -2.715796,-1.110157 -4.88226,-1.107773 -2.126375,0.0024 -3.067184,0.216024 -4.711666,1.070143 -1.9889,1.033009 -3.852022,3.153232 -4.509557,5.131858 -0.781173,2.35067 -0.62219,5.130693 0.412945,7.220805 0.673195,1.359297 1.356084,2.271797 2.518563,3.365377 1.267163,1.19205 2.923353,2.09443 4.695511,2.55836 1.427574,0.37372 3.745948,0.38248 5.165109,0.0195 z m -0.136991,-2.82146 c -0.29039,-0.35869 -1.45002,-2.406327 -2.537006,-4.479758 l -1.125315,-2.146557 -0.420722,0.217563 c -0.231394,0.119659 -0.941262,0.525025 -1.57749,0.900815 -0.636224,0.375789 -1.248468,0.683253 -1.360543,0.683253 -0.205242,0 -0.508615,-0.666552 -0.508615,-1.117505 0,-0.283907 1.230718,-1.446201 2.141381,-2.022329 0.347645,-0.219936 0.658291,-0.468194 0.690331,-0.551686 0.03204,-0.08349 -0.214912,-0.770907 -0.548779,-1.527588 -0.333866,-0.756681 -0.609237,-1.512817 -0.611941,-1.680302 -0.0061,-0.374103 0.482058,-0.736782 0.991563,-0.736782 0.33524,0 0.479248,0.170939 1.238905,1.470606 0.972979,1.66463 0.730671,1.568239 2.614624,1.040109 1.363436,-0.382215 1.965314,-0.376231 2.324777,0.02311 0.380075,0.422242 0.479134,0.749617 0.277473,0.916983 -0.09209,0.07643 -0.838109,0.398012 -1.657828,0.714634 -1.184719,0.457608 -1.490391,0.630925 -1.490391,0.845057 0,0.148157 0.39479,1.065079 0.877313,2.037604 0.482522,0.972525 1.18379,2.477896 1.558371,3.345276 l 0.681062,1.577037 -0.385978,0.33201 c -0.420194,0.36143 -0.948948,0.43297 -1.171192,0.15845 z"
       style="fill:#9726ab;fill-opacity:1;stroke-width:0.13883986" />
    <path
       inkscape:connector-curvature="0"
       id="path1456"
       d="m 45.253849,129.31824 c -0.62672,-1.25023 -5.669002,-10.9766 -7.912245,-15.26243 -0.08187,-0.15642 -0.02771,-0.35281 0.172309,-0.62478 0.745068,-1.01309 -1.747087,1.72497 -4.165694,4.57673 -1.477962,1.74265 -2.940757,3.35213 -3.250655,3.57662 -0.648216,0.46956 -2.113852,0.96053 -2.867369,0.96053 -0.738558,0 -1.947265,-0.38546 -2.486803,-0.79306 -0.699529,-0.52847 -0.993653,-1.10667 -0.994251,-1.95455 -7.87e-4,-1.19181 0.284029,-1.55701 3.074772,-3.94179 1.401249,-1.19742 3.760841,-3.2133 5.243546,-4.47975 1.482701,-1.26645 2.791754,-2.44224 2.909008,-2.61287 0.192318,-0.27985 0.192117,-0.29328 -0.002,-0.13716 -0.316227,0.25422 -0.431285,0.078 -2.198172,-3.36638 -0.861775,-1.67996 -2.339599,-4.52954 -3.284053,-6.332397 -0.944454,-1.802851 -1.717185,-3.389571 -1.717185,-3.526041 0,-0.447509 1.784,-2.902032 2.702632,-3.718433 0.190067,-0.168912 0.692016,-0.923973 1.115449,-1.677915 2.524006,-4.494131 6.334428,-7.903104 11.567328,-10.348654 4.06299,-1.898802 8.753987,-2.72865 12.284228,-2.173108 1.802202,0.283606 2.605119,0.547963 4.259547,1.402441 l 1.256497,0.648956 0.566505,-0.511804 c 1.501556,-1.356566 3.61856,-2.413729 5.88659,-2.939571 1.543089,-0.357765 5.542609,-0.358978 7.446748,-0.0022 2.647128,0.49591 6.915573,1.989458 9.441701,3.303695 1.265419,0.658343 1.060409,0.365835 4.803776,6.854032 0.837082,1.450877 1.926217,3.325215 2.420302,4.165196 0.494082,0.839981 1.665593,2.839275 2.60336,4.442875 0.937764,1.603601 2.035238,3.477941 2.438828,4.165201 0.40359,0.68725 1.188324,2.030527 1.743849,2.985047 0.555528,0.95453 1.509349,2.57895 2.119603,3.60984 0.61026,1.03089 1.63631,2.78027 2.28013,3.88752 0.64382,1.10724 1.4998,2.57547 1.90217,3.26273 0.40238,0.68726 1.30999,2.23781 2.01693,3.44567 0.70692,1.20786 1.31055,2.30123 1.3414,2.4297 0.0609,0.25366 -0.86998,0.9972 -1.24843,0.9972 -0.11804,0 -0.45169,-0.16211 -0.74143,-0.36025 -1.40435,-0.96036 -2.90914,-1.51606 -5.66389,-2.09163 -1.664738,-0.34782 -2.063723,-0.37768 -5.137078,-0.38439 -3.084828,-0.007 -3.481582,0.0213 -5.345333,0.37844 -1.107247,0.21214 -2.473402,0.51011 -3.035896,0.66215 -1.260787,0.3408 -4.061157,1.38083 -5.002863,1.85803 -0.384408,0.1948 -0.763475,0.35417 -0.842376,0.35417 -0.08253,0 -0.152143,-0.39804 -0.163907,-0.93716 l -0.02047,-0.93717 -0.10427,1.24955 c -0.289229,3.46614 1.526748,6.46557 5.303576,8.75987 0.876237,0.53229 0.983365,0.7856 0.555634,1.31382 l -0.256075,0.31624 -0.869732,-0.52834 c -1.858867,-1.1292 -3.715361,-2.83179 -4.605315,-4.22352 -0.627731,-0.98166 -1.193118,-2.49617 -1.399631,-3.74923 l -0.19211,-1.16564 -0.479858,-0.0231 c -0.263918,-0.0127 -1.073396,-0.12415 -1.798833,-0.2477 -1.941582,-0.33066 -3.218233,-0.39122 -5.224371,-0.24785 -5.538013,0.3958 -10.604483,1.80143 -15.697555,4.3551 -3.265661,1.6374 -5.460898,3.17634 -7.902783,5.54012 -0.848472,0.82133 -1.644589,1.49333 -1.769139,1.49333 -0.150628,0 -0.511135,-0.56789 -1.076589,-1.6959 z m 3.174296,-10.56247 c 1.101973,-1.3582 3.706085,-3.8693 5.274531,-5.08613 3.495844,-2.71215 7.032973,-4.43299 11.073121,-5.38716 1.320758,-0.31193 1.836961,-0.36075 3.818096,-0.36114 2.043944,-4.3e-4 2.440374,0.0395 3.678075,0.37008 2.367896,0.63246 4.298903,1.71583 5.974925,3.35214 0.417994,0.4081 0.759988,0.69728 0.759988,0.64262 0,-0.14469 -1.987609,-3.59157 -5.893352,-10.22014 -1.889777,-3.207207 -3.782676,-6.424819 -4.206447,-7.150257 -0.423768,-0.725438 -1.472779,-2.506059 -2.33113,-3.956935 -1.736375,-2.935011 -4.527838,-7.691414 -5.118503,-8.721484 -0.218856,-0.381658 -0.346275,-0.765754 -0.296805,-0.894674 0.07752,-0.202022 0.05927,-0.201096 -0.172604,0.0088 -0.246027,0.222651 -0.297824,0.205677 -1.012564,-0.331823 -2.04194,-1.535584 -4.524327,-2.189865 -7.67177,-2.022047 -6.697694,0.357113 -13.758413,4.126439 -17.724555,9.462159 -0.510852,0.687257 -1.141794,1.640397 -1.402092,2.118087 l -0.473266,0.868529 1.582902,3.088406 c 0.870594,1.698626 2.39402,4.645462 3.385383,6.548529 1.483055,2.84693 1.775377,3.50351 1.64952,3.70504 -0.350463,0.56118 0.897706,-0.19936 1.872972,-1.14124 0.546382,-0.52769 1.220738,-1.05441 1.498569,-1.17049 0.277831,-0.11609 0.541187,-0.30499 0.585238,-0.41979 0.0458,-0.11934 -0.158239,-0.5485 -0.476473,-1.0022 -2.638584,-3.761737 -2.81401,-8.620376 -0.438786,-12.152581 2.645058,-3.933467 7.525531,-5.610971 12.41874,-4.268538 1.994945,0.547306 3.784596,1.647268 5.299805,3.257389 2.18853,2.325616 3.147865,4.677319 3.148876,7.719111 7.87e-4,2.395602 -0.538857,4.084562 -1.933915,6.052629 -3.041792,4.29118 -9.347667,5.59627 -14.340254,2.96793 -0.721037,-0.37959 -1.428496,-0.69016 -1.57213,-0.69016 -0.152005,0 -0.31727,0.14759 -0.395416,0.35314 -0.07385,0.19422 -0.556504,0.8137 -1.072574,1.37661 -0.876611,0.95618 -2.078679,2.39633 -2.488302,2.98116 -0.150592,0.215 -0.145291,0.2524 0.03353,0.23663 0.145401,-0.0128 1.096927,1.6783 3.01645,5.36107 1.884256,3.61511 2.875788,5.37988 3.022771,5.38004 0.1203,1.4e-4 0.537649,-0.39283 0.92744,-0.87326 z m 30.815774,-1.10334 c -0.03322,-0.1727 -0.06164,-0.0641 -0.06319,0.24135 -0.0016,0.30545 0.02562,0.44675 0.06038,0.31401 0.03475,-0.13274 0.03601,-0.38266 0.0028,-0.55536 z m 1.659831,-0.83466 c -0.03853,-0.0954 -0.07003,-0.0174 -0.07003,0.17355 0,0.19091 0.03152,0.269 0.07003,0.17355 0.03853,-0.0954 0.03853,-0.25165 0,-0.3471 z m -1.524347,-0.54668 c -0.04432,-0.11076 -0.07722,-0.0779 -0.08388,0.0839 -0.006,0.14636 0.0268,0.22837 0.07292,0.18223 0.04613,-0.0461 0.05106,-0.16589 0.01094,-0.26611 z m 1.672563,-1.87992 c -0.03007,-0.28806 -0.05515,-0.0864 -0.05577,0.44813 -3.94e-4,0.53454 0.02397,0.77022 0.05465,0.52375 0.03066,-0.24647 0.03117,-0.68382 0.0012,-0.97188 z m -0.145323,-1.3134 c -0.04432,-0.11075 -0.07722,-0.0779 -0.08388,0.0839 -0.006,0.14636 0.0268,0.22836 0.07292,0.18222 0.04614,-0.0461 0.05107,-0.16588 0.01094,-0.26611 z m -42.423285,-0.77229 c 0.172699,-0.22021 0.167787,-0.22512 -0.05242,-0.0524 -0.133634,0.1048 -0.242969,0.21414 -0.242969,0.24297 0,0.11427 0.114014,0.0407 0.295391,-0.19055 z m 62.555142,-2.33361 c -0.48787,-0.83556 -1.63631,-2.8 -2.552093,-4.36542 -1.40158,-2.39583 -2.450922,-4.19204 -4.379942,-7.497347 -0.862656,-1.478139 -3.759078,-6.42545 -5.242833,-8.955174 -0.940558,-1.6036 -2.327831,-3.977762 -3.082832,-5.275914 -0.754998,-1.298153 -1.510058,-2.476503 -1.677912,-2.618558 -0.751427,-0.635931 -4.421076,-2.180304 -6.762084,-2.845825 -2.986095,-0.848913 -3.489276,-0.922308 -6.317214,-0.921447 -2.363291,7.08e-4 -2.753606,0.03488 -3.748676,0.328137 -1.643785,0.484434 -2.777165,1.041034 -3.931596,1.930796 -0.567126,0.437107 -1.242183,0.904568 -1.500119,1.038803 -0.257937,0.134234 -0.468976,0.277008 -0.468976,0.317274 0,0.04027 0.132244,0.0024 0.293876,-0.08407 0.443847,-0.237542 -0.549589,-1.819498 7.896018,12.573675 2.240378,3.818093 4.367753,7.44181 4.727504,8.05271 1.372311,2.33034 2.561198,4.33992 3.121276,5.27591 0.319851,0.53454 0.944481,1.59666 1.388064,2.36028 1.439055,2.47731 1.480297,2.5337 1.605477,2.19531 0.233102,-0.63013 3.544697,-2.8363 5.29023,-3.52433 0.400303,-0.15778 1.229971,-0.4028 1.843707,-0.54447 4.428424,-1.02225 8.623261,0.15838 13.385325,3.76728 0.61942,0.46942 0.93333,0.63438 0.96009,0.50451 0.0219,-0.10612 -0.35941,-0.87659 -0.84729,-1.71214 z m -61.722105,1.36173 c 0.172699,-0.22021 0.167787,-0.22512 -0.05242,-0.0524 -0.133634,0.1048 -0.242969,0.21414 -0.242969,0.24297 0,0.11427 0.114011,0.0407 0.295388,-0.19055 z m 0.74591,-0.86775 c 0.138215,-0.15273 0.22006,-0.27768 0.181876,-0.27768 -0.03818,0 -0.182502,0.12495 -0.320717,0.27768 -0.138215,0.15272 -0.220056,0.27768 -0.181877,0.27768 0.03818,0 0.182503,-0.12496 0.320718,-0.27768 z m 0.78133,-0.93717 c 0.172699,-0.22021 0.167787,-0.22512 -0.05242,-0.0524 -0.133633,0.1048 -0.242969,0.21414 -0.242969,0.24297 0,0.11427 0.114015,0.0407 0.295392,-0.19055 z m -5.015945,-1.49253 c 0.179346,-0.1909 0.294845,-0.3471 0.256661,-0.3471 -0.03817,0 -0.216156,0.1562 -0.395502,0.3471 -0.179346,0.19091 -0.294845,0.3471 -0.256665,0.3471 0.03818,0 0.21616,-0.15619 0.395506,-0.3471 z m 1.041297,-0.90246 c 0.138215,-0.15272 0.220061,-0.27768 0.181877,-0.27768 -0.03818,0 -0.182502,0.12496 -0.320717,0.27768 -0.138211,0.15273 -0.220056,0.27768 -0.181877,0.27768 0.03818,0 0.182503,-0.12495 0.320717,-0.27768 z m 1.180139,-1.0413 c 0.259046,-0.26726 0.439754,-0.48594 0.401571,-0.48594 -0.03818,0 -0.281366,0.21868 -0.540412,0.48594 -0.259042,0.26727 -0.43975,0.48594 -0.401571,0.48594 0.03818,0 0.281369,-0.21867 0.540412,-0.48594 z m 16.968952,-1.44786 c 3.417556,-0.87406 6.074445,-3.47082 6.915392,-6.758887 1.142565,-4.4674 -1.215358,-9.305829 -5.604037,-11.499408 -1.809809,-0.90459 -2.715796,-1.110157 -4.88226,-1.107773 -2.126375,0.0024 -3.067184,0.216024 -4.711666,1.070143 -1.9889,1.033009 -3.852022,3.153232 -4.509557,5.131858 -0.781173,2.35067 -0.62219,5.130693 0.412945,7.22081 0.673195,1.359297 1.356084,2.271797 2.518563,3.365377 1.267163,1.19205 2.923353,2.09443 4.695511,2.55836 1.427574,0.37372 3.745948,0.38248 5.165109,0.0195 z m -0.0079,-3.04181 c -0.29795,-0.29796 -1.210391,-1.893187 -2.653429,-4.639049 -0.562211,-1.069792 -1.088954,-1.909048 -1.198175,-1.909048 -0.107198,0 -0.867099,0.400024 -1.688667,0.888942 -1.613549,0.960227 -1.840858,0.979125 -1.840858,0.15304 0,-0.515312 0.651388,-1.197344 1.996582,-2.090503 0.460483,-0.305741 0.780213,-0.619098 0.780213,-0.764654 0,-0.135644 -0.281149,-0.868288 -0.624779,-1.628098 -0.343627,-0.759812 -0.62478,-1.448657 -0.62478,-1.530767 0,-0.199185 0.558244,-0.581554 0.849047,-0.581554 0.147153,0 0.547558,0.533341 1.095652,1.459404 0.475061,0.802672 0.918066,1.492975 0.984456,1.534007 0.06639,0.04103 0.605955,-0.07762 1.199025,-0.263662 0.593074,-0.186046 1.398069,-0.381254 1.788884,-0.433795 0.662778,-0.0891 0.73073,-0.0699 1.010332,0.285559 0.164871,0.209598 0.278016,0.446327 0.251435,0.526066 -0.02656,0.07974 -0.637421,0.369062 -1.35743,0.642942 -1.621313,0.616724 -1.933884,0.785892 -1.933884,1.046651 0,0.113128 0.336519,0.876688 0.747822,1.696799 0.985456,1.964943 2.306654,4.95852 2.306654,5.22643 0,0.11698 -0.186375,0.30908 -0.414168,0.42687 -0.383231,0.19818 -0.433572,0.19477 -0.673928,-0.0456 z"
       style="fill:#fbd114;stroke-width:0.13883986" />
    <path
       inkscape:connector-curvature="0"
       id="path1452"
       d="m 45.429342,129.73047 c -0.320222,-0.62999 -1.278572,-2.48871 -2.129669,-4.13049 -0.851097,-1.64178 -1.966506,-3.79727 -2.478684,-4.78997 -0.512173,-0.99271 -1.540106,-2.97539 -2.284288,-4.40596 -0.831666,-1.59873 -1.311548,-2.66876 -1.245331,-2.77679 0.253442,-0.41351 3.969051,-4.68806 4.075045,-4.68806 0.06416,0 0.942116,1.60881 1.951011,3.57513 3.385568,6.59839 3.748818,7.25438 4.017015,7.25438 0.139887,0 0.588213,-0.41238 1.018868,-0.93717 1.087207,-1.32486 3.838877,-3.98573 5.232553,-5.05991 3.51114,-2.70619 6.96371,-4.39146 11.10719,-5.42165 0.97115,-0.24145 1.62271,-0.29509 3.67926,-0.30287 2.73842,-0.0104 3.61225,0.1445 5.72041,1.01384 1.57624,0.64999 4.02772,2.45522 4.60701,3.39254 0.56483,0.91392 0.61462,2.60414 0.20266,6.88065 l -0.0718,0.74557 -0.50857,-0.0776 c -0.27972,-0.0427 -1.07088,-0.17407 -1.75814,-0.29192 -0.74163,-0.12717 -2.0997,-0.21526 -3.34099,-0.2167 -5.39756,-0.006 -11.43685,1.47055 -16.86021,4.12289 -3.612015,1.76648 -5.911884,3.33999 -8.388537,5.73923 -0.863163,0.83618 -1.657855,1.52033 -1.765978,1.52033 -0.108124,0 -0.458586,-0.51545 -0.778804,-1.14543 z m 35.28128,-11.24603 c 0.26936,-4.19569 0.27043,-4.58748 0.0152,-5.51888 -0.43548,-1.58893 -0.43889,-1.57962 0.97515,-2.66162 1.5295,-1.17037 3.9024,-2.35906 5.48417,-2.74729 4.45696,-1.09391 8.90569,0.14047 13.568618,3.76486 0.77576,0.60298 1.28725,0.83399 1.28725,0.58138 0,-0.12709 -0.76732,-1.49 -2.567478,-4.56035 -0.85066,-1.45087 -2.34914,-4.01247 -3.32996,-5.69243 -0.98083,-1.679957 -2.38785,-4.085367 -3.12672,-5.345337 -0.73887,-1.25997 -2.11097,-3.60289 -3.04911,-5.20649 -0.93815,-1.6036 -2.03532,-3.47794 -2.43816,-4.1652 -0.40285,-0.68725 -1.27701,-2.18672 -1.9426,-3.33215 -0.66559,-1.14543 -1.27509,-2.16298 -1.35444,-2.26121 -0.54373,-0.67311 -5.16697,-2.58132 -7.94633,-3.2798 -2.54247,-0.63894 -4.17562,-0.8283 -6.31721,-0.73248 -2.82924,0.1266 -5.16463,0.95043 -7.08083,2.49781 -0.49636,0.40081 -1.22824,0.92816 -1.62641,1.17187 l -0.72396,0.44312 -0.6019,-0.45944 c -2.03495,-1.55331 -4.83336,-2.30058 -7.877244,-2.10348 -5.738749,0.37159 -11.614013,3.08388 -15.785583,7.28733 -1.396038,1.40671 -2.754165,3.21137 -3.408453,4.52911 l -0.419584,0.84504 1.803587,3.459 c 3.702582,7.100967 4.915469,9.511787 4.872586,9.685117 -0.04592,0.18565 -2.036296,2.00881 -3.569298,3.26945 -0.727649,0.59838 -0.918499,0.69657 -1.060921,0.54584 -0.09552,-0.10108 -0.680614,-1.16921 -1.300222,-2.37361 -0.619604,-1.2044 -1.185183,-2.29776 -1.256839,-2.42969 -1.307121,-2.40665 -4.172247,-8.112957 -4.172247,-8.309637 0,-0.37861 1.060051,-1.89459 2.177672,-3.1143 0.560215,-0.61138 1.23515,-1.55584 1.618436,-2.26472 2.792608,-5.1649 8.314988,-9.49577 14.600174,-11.45005 2.33024,-0.72455 3.729494,-0.97941 5.963359,-1.08619 3.008477,-0.14379 5.230087,0.31391 7.524097,1.55015 l 1.13071,0.60934 1.02131,-0.82984 c 1.23384,-1.00253 3.37365,-2.0823 4.97824,-2.51207 1.05137,-0.28161 1.49826,-0.31599 4.09578,-0.31511 3.22264,0.001 4.00057,0.11211 6.87257,0.98084 1.88723,0.57086 2.00037,0.61179 3.88752,1.40611 2.30457,0.97002 3.50417,1.64458 3.82785,2.15249 0.15808,0.24808 1.08612,1.82556 2.0623,3.50553 1.92146,3.30673 2.74601,4.71806 4.13693,7.08083 2.36972,4.02548 3.87352,6.59264 6.18108,10.551827 2.861848,4.91019 5.418138,9.28361 6.492208,11.10719 2.71901,4.61637 3.40152,5.80282 3.40152,5.91311 0,0.20663 -1.13349,0.96112 -1.30161,0.86639 -0.0859,-0.0484 -0.24992,-0.1646 -0.36447,-0.2582 -0.89635,-0.73254 -3.10328,-1.60524 -5.13707,-2.0314 -4.235518,-0.8875 -7.620638,-0.88333 -12.230868,0.0151 -2.22716,0.43402 -5.55071,1.52276 -7.16959,2.34865 -0.9215,0.47011 -0.92167,0.46989 -0.81918,-1.12649 z m -25.70044,-16.88177 c -0.21533,-0.13339 -1.24544,-1.913317 -2.544046,-4.395817 -0.625468,-1.19569 -1.216617,-2.20444 -1.313666,-2.24169 -0.195942,-0.0752 -1.059795,0.34628 -2.425997,1.18362 -0.928338,0.56897 -1.016291,0.57406 -1.168875,0.0677 -0.12459,-0.4135 0.416062,-1.01663 1.747902,-1.94988 0.689241,-0.48296 1.08705,-0.85551 1.08705,-1.01804 0,-0.14098 -0.281149,-0.86208 -0.62478,-1.60245 -0.343626,-0.74037 -0.624779,-1.42983 -0.624779,-1.53215 0,-0.19941 0.419793,-0.47456 0.719781,-0.47178 0.158755,10e-4 1.482201,2.0622 1.716477,2.67271 0.144594,0.37682 0.453812,0.38562 1.503973,0.0428 0.55894,-0.18246 1.36359,-0.37514 1.7881,-0.42817 0.73767,-0.0922 0.78303,-0.0794 1.02452,0.2892 0.13898,0.2121 0.19153,0.40719 0.11679,0.43355 -1.20755,0.42575 -3.06188,1.27696 -3.172085,1.45611 -0.112401,0.18272 0.0997,0.73939 0.978675,2.56853 1.6551,3.444267 2.01983,4.289947 1.96661,4.559867 -0.0537,0.27254 -0.54913,0.50624 -0.77565,0.36591 z"
       style="fill:#9726ab;fill-opacity:1;stroke-width:0.13883986" />
    <path
       inkscape:connector-curvature="0"
       id="path1448"
       d="m 45.31256,128.94717 c -0.228541,-0.36765 -0.770413,-1.40657 -1.204157,-2.30872 -0.433741,-0.90215 -0.912111,-1.81369 -1.063038,-2.02565 -0.150931,-0.21196 -0.274419,-0.44803 -0.274419,-0.52461 0,-0.0766 -0.373148,-0.8089 -0.829223,-1.62739 -0.456071,-0.81849 -0.869473,-1.62089 -0.918668,-1.7831 -0.0492,-0.16221 -0.295002,-0.63856 -0.54624,-1.05855 -0.251238,-0.41999 -0.632159,-1.13849 -0.846492,-1.59666 -0.214334,-0.45817 -0.688741,-1.35341 -1.054234,-1.98942 -0.365497,-0.63601 -0.664537,-1.21642 -0.664537,-1.2898 0,-0.0734 -0.130852,-0.38991 -0.290783,-0.7034 -0.35565,-0.69714 -0.305393,-0.8313 0.770535,-2.05691 0.435732,-0.49636 1.134705,-1.29295 1.553274,-1.77021 0.418569,-0.47726 0.808706,-0.86775 0.866973,-0.86775 0.05827,0 0.565344,0.89031 1.126838,1.97847 0.561495,1.08815 1.14512,2.19714 1.29694,2.4644 0.151824,0.26727 0.455127,0.86081 0.67401,1.31898 0.218883,0.45817 0.522685,1.05171 0.675112,1.31898 0.15243,0.26727 0.502744,0.95453 0.778477,1.52724 0.966009,2.00646 1.362283,2.24168 2.175133,1.29107 2.607292,-3.04914 5.40676,-5.55689 8.522475,-7.63438 0.741718,-0.49456 3.795596,-2.0196 4.507569,-2.25099 0.253155,-0.0823 1.053825,-0.34644 1.779261,-0.58704 2.047986,-0.67923 2.715419,-0.81073 4.581717,-0.9027 1.991832,-0.0981 3.732701,0.0784 5.016358,0.50876 2.09489,0.70231 4.506137,2.16924 5.320377,3.23677 0.643757,0.84401 0.810938,1.44761 0.797329,2.87873 -0.01287,1.35532 -0.268838,4.30338 -0.383581,4.41812 -0.03479,0.0348 -0.711395,-0.0416 -1.503564,-0.16986 -2.84398,-0.46031 -8.789219,-0.0997 -11.746036,0.71245 -2.824192,0.77573 -5.186133,1.5439 -6.408442,2.08421 -0.331635,0.1466 -1.00908,0.43854 -1.505433,0.64877 -0.496352,0.21022 -1.121131,0.51476 -1.388395,0.67674 -0.267268,0.16198 -0.785034,0.4336 -1.15059,0.60358 -0.365556,0.16998 -0.990335,0.51905 -1.388399,0.77571 -0.398061,0.25666 -1.046957,0.66799 -1.441987,0.91408 -0.39503,0.24608 -0.79897,0.5447 -0.89764,0.66359 -0.09867,0.11889 -0.284226,0.25603 -0.412342,0.30476 -0.302649,0.11511 -1.586121,1.20906 -2.910563,2.48077 -0.578197,0.55517 -1.084302,1.00941 -1.124678,1.00941 -0.04037,0 -0.260396,-0.30081 -0.488937,-0.66845 z m 35.41389,-11.30649 c 0.04925,-0.55362 0.124932,-1.8188 0.168193,-2.81151 0.06711,-1.53987 0.03751,-1.95782 -0.201453,-2.84621 l -0.280106,-1.0413 0.373542,-0.30749 c 0.910245,-0.74928 1.282224,-1.00991 2.482249,-1.73924 1.33386,-0.81066 1.425335,-0.84908 3.444886,-1.44673 1.820782,-0.53883 4.105259,-0.53573 6.247793,0.008 2.348359,0.59649 5.250149,2.17512 7.586036,4.12696 0.65231,0.54506 1.17539,0.67636 1.48021,0.37155 0.2532,-0.2532 0.20411,-0.49229 -0.23146,-1.12735 -0.21893,-0.31921 -0.60103,-0.98648 -0.84911,-1.48284 -0.24808,-0.49635 -0.66249,-1.19937 -0.92092,-1.56227 -0.258417,-0.3629 -0.469857,-0.72651 -0.469857,-0.80803 0,-0.0815 -0.18744,-0.42064 -0.41653,-0.7536 -0.22908,-0.33296 -0.41652,-0.65071 -0.41652,-0.70611 0,-0.0554 -0.15198,-0.29998 -0.33774,-0.54352 -0.18575,-0.24354 -0.5184,-0.81575 -0.73921,-1.27159 -0.22081,-0.45584 -0.58618,-1.10593 -0.81194,-1.44465 -0.22575,-0.33871 -0.50058,-0.80328 -0.61073,-1.03236 -0.11015,-0.22909 -0.43692,-0.77334 -0.72616,-1.20945 -0.28924,-0.436107 -0.700819,-1.123357 -0.914606,-1.527233 -0.358739,-0.677689 -1.661949,-2.915438 -2.710523,-4.654249 -1.03515,-1.716554 -1.416803,-2.37612 -1.829027,-3.160898 -0.240663,-0.458172 -0.729054,-1.281325 -1.08531,-1.82923 -0.356256,-0.547904 -0.64774,-1.031243 -0.64774,-1.074083 0,-0.07433 -0.534445,-0.999983 -2.028882,-3.514004 -0.373171,-0.627771 -0.865926,-1.475231 -1.095014,-1.883245 -1.030487,-1.835354 -1.182657,-2.000721 -2.525675,-2.744726 -0.703464,-0.389707 -1.641291,-0.834126 -2.084052,-0.987599 -0.442765,-0.153473 -1.063167,-0.395309 -1.378678,-0.537413 -0.897396,-0.404189 -2.1586,-0.804023 -3.052005,-0.967565 -0.449471,-0.08228 -1.098368,-0.210028 -1.441998,-0.283891 -2.304868,-0.495424 -5.207083,-0.677233 -6.59294,-0.413014 -1.08793,0.20742 -1.886574,0.416531 -2.186798,0.572577 -0.132595,0.06892 -0.400205,0.125308 -0.594684,0.125308 -0.194478,0 -0.679532,0.164844 -1.077891,0.36632 -0.835457,0.422541 -2.367731,1.432681 -2.438288,1.607422 -0.02637,0.06526 -0.472274,0.332368 -0.990938,0.593562 L 59.879553,80.175877 58.7282,79.418395 c -0.633241,-0.416135 -1.245013,-0.757002 -1.359489,-0.757002 -0.114475,0 -0.618679,-0.120399 -1.120446,-0.267553 -1.909582,-0.560025 -4.25079,-0.735771 -5.795824,-0.435074 -0.368543,0.07173 -1.107427,0.203025 -1.641959,0.291773 -1.848839,0.306958 -3.33692,0.724712 -4.49137,1.260876 -0.637571,0.296107 -1.217224,0.538377 -1.28812,0.538377 -0.189976,0 -2.019417,0.920539 -2.477051,1.246403 -0.216919,0.154459 -0.447228,0.281104 -0.511803,0.281432 -0.06458,3.34e-4 -0.43539,0.241691 -0.824032,0.536362 -0.388642,0.29467 -0.772318,0.559932 -0.852612,0.589472 -0.08029,0.02954 -0.764581,0.582149 -1.52064,1.228021 -1.348371,1.151863 -3.426892,3.439702 -4.026842,4.432366 -1.427267,2.361516 -1.476502,2.520667 -1.036587,3.350547 1.001769,1.889778 3.639424,6.987058 5.379486,10.395875 0.957804,1.87635 0.97135,2.04343 0.198068,2.44331 -0.223027,0.11533 -0.455469,0.29373 -0.516534,0.39645 -0.06106,0.10271 -0.610855,0.61778 -1.22175,1.1446 -0.610894,0.52682 -1.131545,1.00509 -1.156996,1.06281 -0.153686,0.34854 -0.507648,-0.0971 -1.322683,-1.66525 -0.50603,-0.97361 -1.010214,-1.9264 -1.120411,-2.11731 -0.110194,-0.1909 -0.461054,-0.87816 -0.779686,-1.52723 -0.318631,-0.64908 -0.666233,-1.27878 -0.772443,-1.39934 -0.106215,-0.12055 -0.196954,-0.30799 -0.201646,-0.41652 -0.0047,-0.108517 -0.312826,-0.759617 -0.684742,-1.446878 -0.371916,-0.687258 -0.968186,-1.822297 -1.32504,-2.522311 l -0.64883,-1.272752 0.461459,-0.670711 c 0.253804,-0.368891 0.932364,-1.233146 1.507909,-1.920565 1.169693,-1.397055 1.658544,-2.098236 2.032935,-2.915932 0.659323,-1.440013 3.664379,-4.889059 5.36973,-6.163094 0.397674,-0.297095 0.861003,-0.671983 1.029628,-0.833085 0.168622,-0.161102 0.344796,-0.292913 0.391504,-0.292913 0.0467,0 0.377327,-0.202274 0.734713,-0.449497 1.037393,-0.71762 4.171381,-2.317425 5.23151,-2.670524 1.324041,-0.441002 1.905434,-0.64765 2.152016,-0.764911 0.768638,-0.365514 3.619151,-0.744166 5.692434,-0.756161 3.135302,-0.01814 4.709176,0.351963 6.840321,1.608531 0.915357,0.539715 1.517786,0.524044 2.176739,-0.05662 0.968705,-0.853619 1.330628,-1.088582 2.853748,-1.852674 1.605244,-0.80529 2.097881,-0.932171 4.641852,-1.195525 1.402537,-0.145193 2.725558,-0.0814 5.701719,0.274905 1.038216,0.124297 5.021148,1.390454 6.456051,2.052352 3.810799,1.757863 3.41891,1.457873 4.523894,3.463029 0.336645,0.610895 0.674809,1.211583 0.751471,1.334862 0.07667,0.123278 0.279378,0.478887 0.450475,0.790241 0.171097,0.311354 0.47384,0.80403 0.672762,1.094836 0.198922,0.290806 0.582869,0.965763 0.85321,1.499906 0.270346,0.534145 0.63417,1.158924 0.808502,1.388399 0.174328,0.229476 0.546406,0.850597 0.826834,1.380268 0.280433,0.529673 0.649822,1.154452 0.820868,1.388398 0.171046,0.233948 0.491063,0.800228 0.71115,1.258399 0.220088,0.458172 0.566529,1.051712 0.76987,1.318979 0.203338,0.267266 0.635354,0.985762 0.960035,1.596658 0.324681,0.610895 0.769764,1.371888 0.989072,1.691094 0.219308,0.319206 0.398741,0.613779 0.398741,0.654608 0,0.04083 0.343631,0.640926 0.763623,1.333554 0.41999,0.692627 0.76362,1.310227 0.76362,1.372447 0,0.0622 0.17578,0.356787 0.39062,0.654607 0.21484,0.29781 0.75567,1.19749 1.20183,1.99929 0.44616,0.8018 0.92212,1.61765 1.05768,1.813 0.13556,0.19534 0.42803,0.69516 0.64993,1.11071 0.36594,0.68528 0.982007,1.73654 2.151427,3.67119 0.23079,0.38181 0.60801,1.03783 0.83826,1.45782 0.23025,0.41999 0.59476,1.02276 0.81002,1.33948 0.21526,0.31673 0.59164,0.94151 0.83639,1.3884 0.24476,0.44689 0.61882,1.09368 0.83124,1.43731 0.21243,0.34363 0.47697,0.82308 0.58789,1.06545 0.11092,0.24236 0.45991,0.82946 0.77555,1.30466 0.59416,0.89453 0.62262,1.12205 0.17063,1.36395 -0.20821,0.11143 -0.36299,0.0709 -0.71191,-0.18655 -0.48718,-0.35943 -3.08048,-1.44041 -4.34356,-1.81055 -1.608997,-0.47152 -5.861597,-0.76576 -8.647578,-0.59835 -2.648478,0.15916 -3.814999,0.31498 -5.831271,0.77891 -0.904712,0.20817 -4.728732,1.51659 -5.332188,1.82445 -0.306592,0.15641 -0.599568,0.28439 -0.651049,0.28439 -0.05149,0 -0.05332,-0.45297 -0.0041,-1.00659 z"
       style="fill:#9726ab;fill-opacity:1;stroke-width:0.13883986" />
    <text
       xml:space="preserve"
       style="font-style:normal;font-weight:normal;font-size:8.90254688px;line-height:1.25;font-family:sans-serif;text-align:center;letter-spacing:0px;word-spacing:0px;text-anchor:middle;fill:#fbd114;fill-opacity:1;stroke:#9726ab;stroke-width:0.26458333;stroke-opacity:1;stroke-miterlimit:4;stroke-dasharray:none"
       x="66.123703"
       y="139.50308"
       id="text1483"><tspan
         sodipodi:role="line"
         x="66.123703"
         y="139.50308"
         style="font-style:normal;font-variant:normal;font-weight:bold;font-stretch:normal;font-family:Poppins;-inkscape-font-specification:'Poppins Bold';text-align:center;text-anchor:middle;stroke-width:0.26458333;fill:#fbd114;fill-opacity:1;stroke:#9726ab;stroke-opacity:1;stroke-miterlimit:4;stroke-dasharray:none"
         id="tspan1485">Theological</tspan></text>
    <text
       xml:space="preserve"
       style="font-style:normal;font-variant:normal;font-weight:bold;font-stretch:normal;font-size:10.58333302px;line-height:1.25;font-family:Poppins;-inkscape-font-specification:'Poppins Bold';letter-spacing:0px;word-spacing:0px;fill:#9726ab;fill-opacity:1;stroke:none;stroke-width:0.26458333;stroke-opacity:1;stroke-miterlimit:4;stroke-dasharray:none;"
       x="45.623493"
       y="151.13531"
       id="text1498"><tspan
         sodipodi:role="line"
         id="tspan1496"
         x="45.623493"
         y="151.13531"
         style="font-style:normal;font-variant:normal;font-weight:bold;font-stretch:normal;font-family:Poppins;-inkscape-font-specification:'Poppins Bold';stroke-width:0.26458333;fill:#9726ab;fill-opacity:1;stroke:none;stroke-opacity:1;stroke-miterlimit:4;stroke-dasharray:none;">Studies</tspan></text>
  </g>
</svg>
